<?xml version="1.0" encoding="utf-8"?><svg viewBox="0 0 1440 671" xmlns="http://www.w3.org/2000/svg" xmlns:xlink="http://www.w3.org/1999/xlink"><style>:root>svg{display:none}:root>svg:target{display:block}</style><svg viewBox="0 0 80 80" id="arrow" xmlns="http://www.w3.org/2000/svg"><circle cx="40" cy="40" r="39.5"/><path d="M49.58 50.078a.5.5 0 00.5-.5v-4.5a.5.5 0 00-1 0v4h-4a.5.5 0 100 1h4.5zM29.645 30.35l19.58 19.581.708-.707-19.581-19.581-.707.707z"/></svg><svg viewBox="0 0 883 514" id="bg" xmlns="http://www.w3.org/2000/svg"><g opacity=".5"><path d="M49.71 346.916c-7.933-17.209-24.459-26.476-37.018-21.181-12.56 5.296-16.526 23.829-8.594 41.038 7.933 17.209 24.459 26.476 37.018 21.181 12.56-5.296 16.526-23.829 8.594-41.038zM179.935 442.891c2.644 9.266-1.983 18.533-11.238 21.842-8.593 4.634-19.17 1.986-23.797-6.619-2.644-9.266 1.983-18.533 11.237-21.842 8.594-4.633 19.171-1.324 23.798 6.619zM314.126 472.676c15.865 18.533 62.799 30.447 122.293 36.404-50.901-32.432-100.479-63.542-149.396-93.989 2.645 21.843 11.899 41.7 27.103 57.585zM122.424 387.954c24.459 35.742 79.325 11.914 115.021-4.634-44.95-27.799-89.24-54.937-133.53-82.075 5.95 8.605 10.577 17.871 12.56 28.462 4.627 25.152-6.61 40.375 5.949 58.247zM49.71 193.356C196.46 283.374 333.957 390.601 520.37 513.714c32.391.662 66.104-.662 99.156-3.31C362.382 357.506 255.293 229.76 114.492 136.433c-27.103 11.914-52.222 27.138-64.782 56.923zM852.874 432.962c19.831-21.842 30.408-50.304 29.086-80.089-289.536-64.204-245.246-165.474-384.726-244.901-22.475 4.633-45.611 2.647-67.426-5.957-14.543-6.62-29.747-14.562-60.154-43.685-41.646-10.59-83.953-19.857-126.92-25.814-2.644 5.957-4.628 11.914-7.272 18.533 311.35 76.118 163.938 235.634 617.412 381.913z"/><path d="M225.547 70.906c-7.272 11.914-17.187 21.842-29.086 29.785-7.272 4.633-14.543 8.605-22.476 11.914 136.836 92.003 208.228 227.692 520.239 389.856 17.849-2.647 35.036-5.957 50.24-9.266 19.831-4.633 39.001-11.252 56.849-21.181C384.857 306.54 427.164 154.966 225.547 70.906zM282.396 2.068c-10.576 1.986-19.831 6.62-27.764 13.238 31.069 4.634 60.155 9.267 85.936 14.562-23.798-25.152-31.069-34.419-58.172-27.8zM567.305 100.029c136.835 71.485 101.8 152.236 293.502 186.655-3.306-5.296-6.611-11.253-10.577-17.21-38.34-55.599-171.21-161.502-282.925-169.445z"/></g></svg><svg viewBox="0 0 1151 671" id="bg-recommend" xmlns="http://www.w3.org/2000/svg"><g opacity=".5"><path d="M1085.97 452.617c10.35-22.453 31.91-34.543 48.3-27.634 16.38 6.908 21.56 31.088 11.21 53.541-10.35 22.453-31.91 34.543-48.3 27.634-16.38-6.908-21.56-31.088-11.21-53.541zM916.067 577.834c-3.449 12.09 2.588 24.18 14.662 28.498 11.212 6.045 25.011 2.591 31.048-8.636 3.45-12.09-2.587-24.18-14.661-28.497-11.212-6.045-25.011-1.728-31.049 8.635zM740.99 616.695c-20.699 24.18-81.933 39.724-159.554 47.496 66.409-42.315 131.093-82.903 194.914-122.627-3.45 28.498-15.524 54.405-35.36 75.131zM991.101 506.158c-31.911 46.633-103.494 15.544-150.067-6.045 58.647-36.27 116.431-71.676 174.216-107.082-7.76 11.226-13.8 23.316-16.387 37.133-6.037 32.816 8.627 52.678-7.762 75.994zM1085.97 252.269C894.506 369.715 715.116 509.612 471.905 670.236c-42.26.863-86.245-.864-129.368-4.318 335.494-199.484 475.211-366.152 658.913-487.915 35.36 15.544 68.13 35.406 84.52 74.266zM38.092 564.881C12.218 536.383-1.581 499.25.144 460.389c377.754-83.766 319.97-215.892 501.947-319.52 29.323 6.045 59.509 3.455 87.97-7.772 18.974-8.635 38.81-18.998 78.483-56.995 54.334-13.817 109.531-25.907 165.591-33.68 3.449 7.773 6.037 15.545 9.487 24.18-406.215 99.311-213.889 307.43-805.53 498.279z"/><path d="M856.558 92.51c9.487 15.544 22.424 28.497 37.948 38.86 9.487 6.045 18.974 11.226 29.323 15.544C745.302 266.95 652.157 443.981 245.08 655.555c-23.286-3.454-45.71-7.772-65.546-12.09-25.874-6.045-50.885-14.68-74.171-27.634C648.708 399.939 593.511 202.183 856.558 92.51zM782.387 2.699c13.8 2.59 25.874 8.635 36.223 17.271-40.535 6.045-78.483 12.09-112.118 18.998 31.048-32.815 40.535-44.905 75.895-36.27zM410.671 130.507c-178.528 93.265-132.818 198.62-382.928 243.525 4.312-6.908 8.624-14.68 13.799-22.452 50.022-72.54 223.375-210.711 369.129-221.073z"/></g></svg><svg viewBox="0 0 200 32" id="logo" xmlns="http://www.w3.org/2000/svg"><g clip-path="url(#dclip0_10_719)"><path d="M74.889 21.452h2.644c.08.695.44 1.264 1.078 1.681.638.43 1.415.638 2.354.638.916 0 1.658-.209 2.25-.615.58-.405.87-.927.87-1.565 0-.545-.21-.997-.638-1.334-.418-.336-1.114-.626-2.076-.846l-1.971-.464c-1.404-.325-2.447-.835-3.12-1.508-.684-.684-1.02-1.565-1.02-2.667 0-1.345.533-2.435 1.588-3.281 1.056-.835 2.424-1.264 4.094-1.264 1.681 0 3.027.417 4.059 1.24 1.02.824 1.554 1.914 1.588 3.259h-2.597c-.07-.707-.371-1.276-.916-1.682-.545-.405-1.264-.603-2.146-.603-.858 0-1.554.198-2.087.58-.533.383-.8.893-.8 1.531 0 .51.209.916.614 1.24.406.314 1.09.592 2.018.813l1.751.405c1.543.348 2.668.87 3.363 1.543.696.672 1.044 1.577 1.044 2.713 0 1.45-.545 2.598-1.624 3.444-1.078.847-2.55 1.276-4.395 1.276-1.762 0-3.177-.406-4.244-1.218-1.067-.811-1.623-1.913-1.681-3.316zM89.51 11.621h2.633v2.574h2.192v2.041h-2.192v6.088c0 .94.464 1.404 1.392 1.404.243 0 .498-.024.788-.058v2.017c-.313.07-.777.105-1.38.105-1.229 0-2.099-.244-2.632-.72-.534-.486-.789-1.275-.789-2.4v-6.447h-1.577v-2.041h1.577V11.62h-.011zM106.302 14.195v11.55h-2.528v-2.018h-.058a3.403 3.403 0 01-1.426 1.612c-.627.371-1.38.557-2.262.557-1.264 0-2.284-.383-3.038-1.148-.754-.766-1.136-1.82-1.136-3.143v-7.41h2.632v6.888c0 .835.22 1.473.65 1.914.428.452 1.043.672 1.82.672.8 0 1.45-.266 1.948-.788.499-.522.742-1.206.742-2.064v-6.633h2.656v.011zM112.958 25.873c-1.449 0-2.609-.534-3.49-1.612-.882-1.078-1.322-2.505-1.322-4.302 0-1.786.44-3.212 1.322-4.29.881-1.08 2.041-1.613 3.479-1.613.823 0 1.553.186 2.18.545.626.371 1.101.87 1.414 1.52h.07V9.765h2.632v15.956h-2.574v-1.96h-.046a3.526 3.526 0 01-1.438 1.531 4.39 4.39 0 01-2.227.58zm.766-9.614c-.87 0-1.578.337-2.099 1.021-.522.673-.789 1.577-.789 2.702 0 1.136.267 2.04.789 2.702.521.672 1.229 1.009 2.099 1.009.869 0 1.577-.337 2.098-1.02.522-.673.789-1.578.789-2.691 0-1.113-.267-2.006-.789-2.702-.533-.684-1.229-1.02-2.098-1.02zM122.967 12.723c-.406 0-.754-.139-1.044-.417a1.367 1.367 0 01-.429-1.02c0-.406.139-.754.429-1.033.29-.278.638-.417 1.044-.417.417 0 .765.14 1.055.417.29.279.429.627.429 1.032 0 .406-.139.754-.429 1.033-.29.266-.638.405-1.055.405zm-1.311 1.473h2.633v11.55h-2.633v-11.55zM131.662 25.917c-1.705 0-3.061-.533-4.059-1.6-.997-1.067-1.496-2.516-1.496-4.36 0-1.82.499-3.259 1.508-4.325 1.009-1.067 2.354-1.6 4.059-1.6 1.704 0 3.061.533 4.058 1.6 1.009 1.066 1.508 2.504 1.508 4.336 0 1.844-.499 3.294-1.496 4.36-1.021 1.056-2.377 1.59-4.082 1.59zm0-2.098c.905 0 1.623-.337 2.134-1.01.51-.672.765-1.611.765-2.829 0-1.206-.255-2.145-.765-2.818-.511-.672-1.218-1.02-2.134-1.02-.905 0-1.612.336-2.122 1.02-.51.673-.765 1.612-.765 2.818s.255 2.145.765 2.818 1.217 1.02 2.122 1.02zM145.312 14.066c1.473 0 2.644.534 3.513 1.6.87 1.068 1.299 2.506 1.299 4.314 0 1.81-.429 3.236-1.287 4.303-.858 1.067-2.018 1.6-3.479 1.6-.823 0-1.554-.174-2.18-.533a3.54 3.54 0 01-1.438-1.508h-.046v5.624h-2.633V14.194h2.563v1.948h.058c.313-.638.8-1.136 1.461-1.507.638-.383 1.369-.569 2.169-.569zm-.766 9.625c.87 0 1.578-.336 2.099-1.008.522-.673.789-1.578.789-2.703 0-1.124-.267-2.029-.789-2.701-.521-.673-1.229-1.02-2.099-1.02-.858 0-1.553.347-2.087 1.031-.533.684-.788 1.577-.788 2.69 0 1.114.266 2.007.788 2.69.534.673 1.229 1.021 2.087 1.021zM151.98 25.744v-11.55h2.528V16.2h.058c.185-.672.521-1.206 1.009-1.577.487-.371 1.078-.557 1.762-.557.325 0 .592.035.8.105v2.4c-.232-.104-.58-.162-1.043-.162-.766 0-1.369.232-1.809.707-.441.464-.661 1.114-.661 1.925v6.703h-2.644zM167.055 22.311h2.47c-.174 1.067-.719 1.937-1.658 2.61-.94.66-2.076.996-3.421.996-1.705 0-3.05-.533-4.047-1.588-.986-1.055-1.485-2.494-1.485-4.314 0-1.82.487-3.27 1.473-4.36.986-1.09 2.308-1.624 3.954-1.624 1.624 0 2.911.51 3.862 1.543.951 1.032 1.426 2.412 1.426 4.163v.87h-8.082v.162c0 .927.266 1.681.811 2.25.545.568 1.253.846 2.134.846.638 0 1.183-.14 1.635-.417.464-.279.777-.65.928-1.137zm-2.702-6.227c-.765 0-1.415.255-1.925.765s-.8 1.183-.858 2.006h5.473c-.023-.835-.29-1.496-.777-2.006-.498-.51-1.136-.765-1.913-.765zM171.161 17.533c0-1.055.429-1.89 1.275-2.54.847-.637 1.972-.962 3.363-.962 1.334 0 2.424.325 3.271.974.846.65 1.287 1.508 1.31 2.551h-2.447a1.547 1.547 0 00-.649-1.16c-.395-.289-.905-.428-1.531-.428-.615 0-1.102.127-1.473.383-.371.255-.556.602-.556 1.02 0 .638.556 1.09 1.681 1.357l2.029.464c1.16.266 1.983.637 2.482 1.125.487.475.731 1.148.731 1.994 0 1.067-.453 1.937-1.369 2.598-.904.66-2.087.997-3.537.997-1.403 0-2.551-.325-3.432-.974-.881-.65-1.357-1.52-1.438-2.598h2.586c.081.522.325.928.731 1.206.405.279.962.418 1.658.418.672 0 1.206-.128 1.588-.371.395-.256.592-.592.592-1.02 0-.337-.116-.604-.348-.813-.232-.197-.638-.37-1.218-.498l-2.087-.51c-2.157-.487-3.212-1.566-3.212-3.213zM183.104 11.621h2.632v2.574h2.192v2.041h-2.192v6.088c0 .94.464 1.404 1.392 1.404.243 0 .499-.024.777-.058v2.017c-.313.07-.777.105-1.38.105-1.229 0-2.111-.244-2.632-.72-.534-.486-.789-1.275-.789-2.4v-6.447h-1.577v-2.041h1.577V11.62zM194.422 25.917c-1.705 0-3.061-.533-4.059-1.6-.997-1.067-1.496-2.516-1.496-4.36 0-1.82.499-3.259 1.508-4.325 1.009-1.067 2.354-1.6 4.059-1.6 1.704 0 3.061.533 4.058 1.6 1.009 1.066 1.508 2.504 1.508 4.336 0 1.844-.499 3.294-1.496 4.36-1.009 1.056-2.366 1.59-4.082 1.59zm0-2.098c.905 0 1.624-.337 2.134-1.01.51-.672.765-1.611.765-2.829 0-1.206-.255-2.145-.765-2.818-.51-.672-1.218-1.02-2.134-1.02-.904 0-1.612.336-2.122 1.02-.51.673-.765 1.612-.765 2.818s.255 2.145.765 2.818c.522.673 1.229 1.02 2.122 1.02zM3.084 21.523c-.487-1.055-1.508-1.646-2.296-1.299-.789.348-1.02 1.485-.534 2.54.487 1.055 1.508 1.647 2.296 1.299.777-.336 1.02-1.473.534-2.54zm8.07 5.938a1.07 1.07 0 01-.684 1.345 1.12 1.12 0 01-1.495-.395 1.067 1.067 0 01.695-1.345 1.106 1.106 0 011.485.395zm8.292 1.843c.986 1.137 3.896 1.89 7.596 2.273-3.166-1.994-6.228-3.943-9.243-5.833a6.223 6.223 0 001.647 3.56zm-11.863-5.23c1.52 2.192 4.894.731 7.108-.266a614.287 614.287 0 00-8.256-5.068 4.61 4.61 0 01.789 1.751c.29 1.53-.418 2.459.359 3.583zM3.072 12.05c9.103 5.578 17.603 12.223 29.153 19.818a72.553 72.553 0 006.134-.185c-15.898-9.51-22.554-17.406-31.275-23.17-1.693.708-3.223 1.659-4.012 3.537zm49.76 14.785a6.86 6.86 0 001.785-4.94C36.668 17.94 39.404 11.632 30.776 6.726a7.765 7.765 0 01-4.175-.348c-.893-.429-1.832-.904-3.746-2.713a76.199 76.199 0 00-7.862-1.612c-.174.36-.302.754-.452 1.171 19.342 4.708 10.17 14.577 38.29 23.61zM13.96 4.465a5.69 5.69 0 01-1.809 1.832 9.39 9.39 0 01-1.38.754c8.489 5.66 12.883 14.055 32.215 24.12 1.101-.174 2.156-.36 3.13-.591 1.218-.278 2.4-.719 3.514-1.287-25.778-10.275-23.18-19.656-35.67-24.828zM17.498.198a4.09 4.09 0 00-1.74.823c1.937.278 3.711.58 5.346.893C19.632.36 19.156-.22 17.498.198zm17.626 6.041c8.465 4.43 6.309 9.405 18.183 11.55a12.786 12.786 0 00-.65-1.043C50.305 13.313 42.07 6.76 35.125 6.239z"/></g><defs><clipPath id="dclip0_10_719"><path d="M0 0h200v32H0z"/></clipPath></defs></svg><svg viewBox="0 0 1440 153" id="presto" xmlns="http://www.w3.org/2000/svg"><mask id="ea" maskUnits="userSpaceOnUse" x="0" y="0" width="1440" height="171"><path d="M0 0h1440v171H0z"/></mask><g mask="url(#ea)"><path d="M62.924 15.065c7.25 0 14.5 2.044 20.713 5.109C89.851 24.26 93.993 29.37 98.136 35.5c4.143 6.13 5.178 13.283 5.178 21.456 0 8.174-2.071 15.327-5.178 21.457-4.142 6.13-8.285 11.24-14.499 14.304-6.214 4.087-12.428 5.11-20.713 5.11H27.713v52.108H7V15.065h55.924zm0 63.348c3.107 0 7.25-1.022 9.321-3.065 3.107-2.044 5.178-4.087 7.25-8.174 1.035-3.065 2.07-6.13 2.07-10.218 0-6.13-2.07-11.239-5.177-15.326-4.143-4.087-8.285-6.13-13.464-6.13H27.713v43.935h35.211v-1.022zM371.544 57.978c0 8.174-2.071 15.326-7.249 22.479-5.179 7.152-11.392 12.26-18.642 15.326l32.105 54.152h-25.891l-28.998-51.087H291.8v51.087h-20.713V15.065h56.96c7.25 0 14.499 2.044 20.713 5.109s12.428 8.174 16.57 15.326c4.143 6.13 6.214 13.283 6.214 22.478zM323.905 35.5h-34.176v43.935h39.354c6.214 0 11.392-2.044 14.499-6.13 3.107-4.088 5.178-9.196 5.178-15.327 0-7.152-2.071-12.26-7.249-16.348-4.143-4.087-10.357-6.13-17.606-6.13zM543.46 15.065h86.993V35.5h-65.245v35.76h54.889v20.436h-54.889v39.847h65.245v20.435H543.46V15.065zM806.511 110.087c5.178 7.152 11.392 13.283 16.57 17.37 6.214 4.086 13.464 6.13 22.784 6.13 4.143 0 8.286-1.022 12.428-2.044 4.143-1.021 7.25-3.065 10.356-6.13 3.107-3.065 4.143-6.13 4.143-9.196 0-6.13-3.107-11.239-8.285-15.326s-13.463-6.13-23.82-8.174c-12.427-3.065-22.784-7.152-31.069-13.282-7.249-6.13-11.392-15.326-11.392-27.587 0-8.174 2.071-14.304 6.214-20.435 4.142-6.13 10.356-10.217 17.606-13.283 8.285-3.065 15.534-5.108 23.819-5.108 11.392 0 20.713 2.043 27.963 6.13 7.249 4.087 14.499 10.218 18.641 17.37L877.97 50.826c-3.107-6.13-8.285-10.217-13.463-14.304-5.178-3.066-11.392-5.109-18.642-5.109-7.249 0-13.463 2.043-18.641 5.109-5.178 3.065-7.249 8.174-7.249 13.282 0 6.13 2.071 11.24 7.249 14.305 5.178 3.065 12.428 5.108 20.713 7.152 7.249 2.043 15.534 4.087 21.748 7.152 7.25 4.087 13.463 8.174 17.606 13.283 4.143 5.108 6.214 11.239 6.214 18.391 0 13.283-4.143 23.5-13.463 30.652-9.321 7.152-20.713 11.239-36.248 11.239-10.356 0-20.712-2.043-28.997-6.13-8.286-4.087-16.571-11.239-22.784-20.435l14.498-15.326zM1088.2 150.957V35.5h-38.31V15.065h99.42V35.5h-39.36v115.457h-21.75zM1431 82.5c0 10.217-2.07 19.413-5.18 27.587s-8.28 16.348-14.5 22.478c-6.21 6.131-13.46 11.239-21.75 15.326-8.28 3.066-17.6 5.109-26.92 5.109s-18.64-2.043-26.93-5.109c-8.28-3.065-15.53-8.174-21.75-15.326-6.21-6.13-10.35-13.282-13.46-22.478-3.11-8.174-5.18-17.37-5.18-27.587 0-10.217 2.07-19.413 5.18-27.587s8.29-16.348 13.46-22.478c6.22-6.13 13.47-11.24 21.75-15.326 8.29-3.066 17.61-5.109 26.93-5.109s18.64 2.043 26.92 5.109c8.29 3.065 15.54 8.174 21.75 15.326 6.22 7.152 10.36 13.282 14.5 22.478 4.14 9.196 5.18 18.391 5.18 27.587zm-20.71 0c0-9.196-2.07-17.37-6.22-25.544-4.14-7.152-9.32-13.282-16.57-17.369-6.21-4.087-14.5-6.13-23.82-6.13s-16.57 2.043-23.82 6.13-12.42 10.217-16.57 17.37c-4.14 7.152-6.21 16.347-6.21 25.543 0 9.196 2.07 17.37 6.21 25.543 4.15 7.153 9.32 13.283 16.57 17.37 7.25 4.087 14.5 6.13 23.82 6.13s16.57-2.043 23.82-6.13 12.43-10.217 16.57-17.37c4.15-7.152 6.22-16.347 6.22-25.543z"/></g></svg><svg viewBox="0 0 22 24" id="reward" xmlns="http://www.w3.org/2000/svg"><path d="M6.385 9.284c0-2.615 2.108-4.743 4.699-4.743 2.59 0 4.698 2.128 4.698 4.743 0 .395-.066.825-.203 1.313a.853.853 0 01-1.055.595.864.864 0 01-.59-1.064 3.18 3.18 0 00.14-.844c0-1.664-1.342-3.019-2.99-3.019-1.649 0-2.99 1.355-2.99 3.02 0 1.664 1.341 3.018 2.99 3.018.288 0 .565-.034.8-.1a.853.853 0 011.049.606.863.863 0 01-.6 1.06 4.71 4.71 0 01-1.25.159c-2.59 0-4.698-2.128-4.698-4.744zm14.378 10.478c-.865.623-1.96.821-2.923.845.023.519.077.941.144 1.46a.866.866 0 01-.342.808.848.848 0 01-.866.085c-1.886-.89-4.876-3.79-5.679-5.907v-.004a.36.36 0 00-.107-.013l-.005.017c-.803 2.117-3.793 5.018-5.679 5.907a.847.847 0 01-.866-.085.866.866 0 01-.342-.808c.067-.519.121-.941.144-1.46-.964-.024-2.058-.222-2.923-.845a.866.866 0 01.11-1.47c1.76-.901 2.966-2.049 3.407-3.237-.835-.332-1.33-1.01-1.312-1.82v-1.292-.116c0-.1.002-.231-.006-.3l-.751-.964a2.076 2.076 0 01-.001-2.547l.75-.97c.01-.068.009-.195.008-.275V5.39a2.068 2.068 0 011.55-2.053l1.286-.273a.35.35 0 00.171-.131l.73-1.073a2.055 2.055 0 012.392-.78l1.225.44a.357.357 0 00.24 0l1.226-.44a2.055 2.055 0 012.39.78l.731 1.073a.35.35 0 00.192.138l1.246.363c.969.281 1.57 1.025 1.57 1.942v1.332c0 .093-.001.252.009.346l.748.96c.582.75.582 1.797 0 2.546l-.005.008-.745.938a1.403 1.403 0 00-.007.166v1.248c.021.952-.694 1.967-1.57 2.222l-1.246.362a.351.351 0 00-.192.139l-.73 1.072a2.056 2.056 0 01-1.396.877c.707 1.012 1.79 2.116 2.787 2.906a15.78 15.78 0 01-.002-.797.866.866 0 01.28-.621.85.85 0 01.64-.22c.36.028.778.038 1.197-.003a8.77 8.77 0 01-.71-.554.868.868 0 01-.09-1.217.849.849 0 011.205-.09c.501.436 1.157.86 2.007 1.294a.866.866 0 01.11 1.471zM4.11 9.497l.788 1.013c.34.437.336.931.333 1.328v1.436c-.002.053.135.153.334.211l1.246.363c.458.133.858.423 1.127.818l.73 1.073c.09.132.26.186.411.132l1.226-.44c.446-.16.938-.16 1.385 0l1.225.44c.152.054.321 0 .411-.132l.73-1.073c.27-.395.67-.685 1.127-.818l1.247-.363c.128-.037.34-.343.334-.526v-1.287c0-.337.032-.732.27-1.097a.855.855 0 01.047-.065l.806-1.015a.34.34 0 00-.002-.415l-.767-.984c-.358-.406-.356-.974-.355-1.393V5.376c0-.154-.181-.24-.333-.284l-1.247-.362a2.064 2.064 0 01-1.126-.819l-.73-1.072a.353.353 0 00-.412-.132l-1.226.44c-.446.16-.938.16-1.384 0l-1.226-.44a.353.353 0 00-.41.132L7.938 3.91a2.064 2.064 0 01-1.188.834l-1.287.273a.346.346 0 00-.232.36v1.379c.003.345.007.866-.332 1.303l-.789 1.02a.34.34 0 000 .417zm4.625 8.107a2.057 2.057 0 01-1.474-.888l-.73-1.072a.344.344 0 00-.065-.07l-.003.01c-.493 1.396-1.549 2.474-2.655 3.27.43.045.86.036 1.228.006a.85.85 0 01.64.221c.175.16.276.384.281.621.006.295.005.556-.002.797.994-.788 2.072-1.886 2.78-2.895z"/></svg></svg>