<svg width="1151" height="671" viewBox="0 0 1151 671" fill="none" xmlns="http://www.w3.org/2000/svg">
<g opacity="0.5">
<path d="M1085.97 452.617C1096.32 430.164 1117.88 418.074 1134.27 424.983C1150.65 431.891 1155.83 456.071 1145.48 478.524C1135.13 500.977 1113.57 513.067 1097.18 506.158C1080.8 499.25 1075.62 475.07 1085.97 452.617Z" fill="#D8DADB"/>
<path d="M916.067 577.834C912.618 589.924 918.655 602.014 930.729 606.332C941.941 612.377 955.74 608.923 961.777 597.696C965.227 585.606 959.19 573.516 947.116 569.199C935.904 563.154 922.105 567.471 916.067 577.834Z" fill="#D8DADB"/>
<path d="M740.99 616.695C720.291 640.875 659.057 656.419 581.436 664.191C647.845 621.876 712.529 581.288 776.35 541.564C772.9 570.062 760.826 595.969 740.99 616.695Z" fill="#D8DADB"/>
<path d="M991.101 506.158C959.19 552.791 887.607 521.702 841.034 500.113C899.681 463.843 957.465 428.437 1015.25 393.031C1007.49 404.257 1001.45 416.347 998.863 430.164C992.826 462.98 1007.49 482.842 991.101 506.158Z" fill="#D8DADB"/>
<path d="M1085.97 252.269C894.506 369.715 715.116 509.612 471.905 670.236C429.645 671.099 385.66 669.372 342.537 665.918C678.031 466.434 817.748 299.766 1001.45 178.003C1036.81 193.547 1069.58 213.409 1085.97 252.269Z" fill="#D8DADB"/>
<path d="M38.0918 564.881C12.2183 536.383 -1.58093 499.25 0.144043 460.389C377.898 376.623 320.114 244.497 502.091 140.869C531.414 146.914 561.6 144.324 590.061 133.097C609.035 124.462 628.871 114.099 668.544 76.1018C722.878 62.2848 778.075 50.1948 834.135 42.4227C837.584 50.1948 840.172 57.9669 843.622 66.6026C437.407 165.913 629.733 374.032 38.0918 564.881Z" fill="#D8DADB"/>
<path d="M856.558 92.5096C866.045 108.054 878.982 121.007 894.506 131.37C903.993 137.415 913.48 142.596 923.829 146.914C745.302 266.95 652.157 443.981 245.08 655.555C221.794 652.101 199.37 647.783 179.534 643.465C153.66 637.42 128.649 628.785 105.363 615.831C648.708 399.939 593.511 202.183 856.558 92.5096Z" fill="#D8DADB"/>
<path d="M782.387 2.69865C796.187 5.28935 808.261 11.3343 818.61 19.97C778.075 26.0149 740.127 32.0599 706.492 38.9684C737.54 6.15291 747.027 -5.93702 782.387 2.69865Z" fill="#D8DADB"/>
<path d="M410.671 130.507C232.143 223.772 277.853 329.127 27.7426 374.032C32.0548 367.124 36.3669 359.352 41.5416 351.58C91.5638 279.04 264.917 140.869 410.671 130.507Z" fill="#D8DADB"/>
</g>
</svg>
