<svg width="1424" height="141" viewBox="0 0 1424 141" fill="none" xmlns="http://www.w3.org/2000/svg">
<path d="M55.9244 3.06522C63.1738 3.06522 70.4233 5.10868 76.6371 8.1739C82.8509 12.2609 86.9935 17.3696 91.136 23.5C95.2786 29.6304 96.3142 36.7826 96.3142 44.9565C96.3142 53.1304 94.243 60.2826 91.136 66.413C86.9935 72.5435 82.8509 77.6522 76.6371 80.7174C70.4233 84.8044 64.2094 85.8261 55.9244 85.8261H20.7128V137.935H0V3.06522H55.9244ZM55.9244 66.413C59.0313 66.413 63.1738 65.3913 65.2451 63.3478C68.352 61.3044 70.4233 59.2609 72.4946 55.1739C73.5302 52.1087 74.5658 49.0435 74.5658 44.9565C74.5658 38.8261 72.4946 33.7174 69.3876 29.6304C65.2451 25.5434 61.1025 23.5 55.9244 23.5H20.7128V67.4348H55.9244V66.413Z" fill="white"/>
<path d="M364.544 45.9783C364.544 54.1522 362.473 61.3043 357.295 68.4565C352.116 75.6087 345.903 80.7174 338.653 83.7826L370.758 137.935H344.867L315.869 86.8478H284.8V137.935H264.087V3.06522H321.047C328.297 3.06522 335.546 5.10868 341.76 8.1739C347.974 11.2391 354.188 16.3478 358.33 23.5C362.473 29.6304 364.544 36.7826 364.544 45.9783ZM316.905 23.5H282.729V67.4348H322.083C328.297 67.4348 333.475 65.3913 336.582 61.3043C339.689 57.2174 341.76 52.1087 341.76 45.9783C341.76 38.8261 339.689 33.7174 334.511 29.6304C330.368 25.5434 324.154 23.5 316.905 23.5Z" fill="white"/>
<path d="M536.46 3.06522H623.453V23.5H558.208V59.2609H613.097V79.6957H558.208V119.543H623.453V139.978H536.46V3.06522Z" fill="white"/>
<path d="M799.511 98.087C804.689 105.239 810.903 111.37 816.081 115.457C822.295 119.543 829.545 121.587 838.865 121.587C843.008 121.587 847.151 120.565 851.293 119.543C855.436 118.522 858.543 116.478 861.649 113.413C864.756 110.348 865.792 107.283 865.792 104.217C865.792 98.087 862.685 92.9783 857.507 88.8913C852.329 84.8044 844.044 82.7609 833.687 80.7174C821.26 77.6522 810.903 73.5652 802.618 67.4348C795.369 61.3044 791.226 52.1087 791.226 39.8478C791.226 31.6739 793.297 25.5435 797.44 19.413C801.582 13.2826 807.796 9.19564 815.046 6.13042C823.331 3.0652 830.58 1.02171 838.865 1.02171C850.257 1.02171 859.578 3.06523 866.828 7.15219C874.077 11.2391 881.327 17.3696 885.469 24.5218L870.97 38.8261C867.863 32.6957 862.685 28.6087 857.507 24.5218C852.329 21.4565 846.115 19.413 838.865 19.413C831.616 19.413 825.402 21.4565 820.224 24.5218C815.046 27.587 812.975 32.6956 812.975 37.8043C812.975 43.9348 815.046 49.0435 820.224 52.1087C825.402 55.1739 832.652 57.2174 840.937 59.2609C848.186 61.3043 856.471 63.3478 862.685 66.413C869.935 70.5 876.148 74.587 880.291 79.6957C884.434 84.8044 886.505 90.9348 886.505 98.087C886.505 111.37 882.362 121.587 873.042 128.739C863.721 135.891 852.329 139.978 836.794 139.978C826.438 139.978 816.082 137.935 807.797 133.848C799.511 129.761 791.226 122.609 785.013 113.413L799.511 98.087Z" fill="white"/>
<path d="M1081.2 138.957V23.5H1042.89V3.06522H1142.31V23.5H1102.95V138.957H1081.2Z" fill="white"/>
<path d="M1424 70.5C1424 80.7174 1421.93 89.9131 1418.82 98.087C1415.71 106.261 1410.54 114.435 1404.32 120.565C1398.11 126.696 1390.86 131.804 1382.57 135.891C1374.29 138.957 1364.97 141 1355.65 141C1346.33 141 1337.01 138.957 1328.72 135.891C1320.44 132.826 1313.19 127.717 1306.97 120.565C1300.76 114.435 1296.62 107.283 1293.51 98.087C1290.4 89.9131 1288.33 80.7174 1288.33 70.5C1288.33 60.2826 1290.4 51.087 1293.51 42.913C1296.62 34.7391 1301.8 26.5652 1306.97 20.4348C1313.19 14.3043 1320.44 9.19566 1328.72 5.1087C1337.01 2.04349 1346.33 0 1355.65 0C1364.97 0 1374.29 2.04349 1382.57 5.1087C1390.86 8.17392 1398.11 13.2826 1404.32 20.4348C1410.54 27.5869 1414.68 33.7174 1418.82 42.913C1422.96 52.1087 1424 61.3044 1424 70.5ZM1403.29 70.5C1403.29 61.3044 1401.22 53.1304 1397.07 44.9565C1392.93 37.8043 1387.75 31.6739 1380.5 27.587C1374.29 23.5 1366 21.4565 1356.68 21.4565C1347.36 21.4565 1340.11 23.5 1332.86 27.587C1325.61 31.6739 1320.44 37.8043 1316.29 44.9565C1312.15 52.1087 1310.08 61.3044 1310.08 70.5C1310.08 79.6957 1312.15 87.8696 1316.29 96.0435C1320.44 103.196 1325.61 109.326 1332.86 113.413C1340.11 117.5 1347.36 119.543 1356.68 119.543C1366 119.543 1373.25 117.5 1380.5 113.413C1387.75 109.326 1392.93 103.196 1397.07 96.0435C1401.22 88.8913 1403.29 79.6957 1403.29 70.5Z" fill="white"/>
</svg>
