<svg width="1440" height="153" viewBox="0 0 1440 153" fill="none" xmlns="http://www.w3.org/2000/svg">
<mask id="mask0_10_700" style="mask-type:alpha" maskUnits="userSpaceOnUse" x="0" y="0" width="1440" height="171">
<rect width="1440" height="171" fill="#C4C4C4"/>
</mask>
<g mask="url(#mask0_10_700)">
<path d="M62.9244 15.0652C70.1738 15.0652 77.4233 17.1087 83.6371 20.1739C89.8509 24.2609 93.9935 29.3696 98.136 35.5C102.279 41.6304 103.314 48.7826 103.314 56.9565C103.314 65.1304 101.243 72.2826 98.136 78.413C93.9935 84.5435 89.8509 89.6522 83.6371 92.7174C77.4233 96.8044 71.2094 97.8261 62.9244 97.8261H27.7128V149.935H7V15.0652H62.9244ZM62.9244 78.413C66.0313 78.413 70.1738 77.3913 72.2451 75.3478C75.352 73.3044 77.4233 71.2609 79.4946 67.1739C80.5302 64.1087 81.5658 61.0435 81.5658 56.9565C81.5658 50.8261 79.4946 45.7174 76.3876 41.6304C72.2451 37.5434 68.1025 35.5 62.9244 35.5H27.7128V79.4348H62.9244V78.413Z" fill="white"/>
<path d="M371.544 57.9783C371.544 66.1522 369.473 73.3043 364.295 80.4565C359.116 87.6087 352.903 92.7174 345.653 95.7826L377.758 149.935H351.867L322.869 98.8478H291.8V149.935H271.087V15.0652H328.047C335.297 15.0652 342.546 17.1087 348.76 20.1739C354.974 23.2391 361.188 28.3478 365.33 35.5C369.473 41.6304 371.544 48.7826 371.544 57.9783ZM323.905 35.5H289.729V79.4348H329.083C335.297 79.4348 340.475 77.3913 343.582 73.3043C346.689 69.2174 348.76 64.1087 348.76 57.9783C348.76 50.8261 346.689 45.7174 341.511 41.6304C337.368 37.5434 331.154 35.5 323.905 35.5Z" fill="white"/>
<path d="M543.46 15.0652H630.453V35.5H565.208V71.2609H620.097V91.6957H565.208V131.543H630.453V151.978H543.46V15.0652Z" fill="white"/>
<path d="M806.511 110.087C811.689 117.239 817.903 123.37 823.081 127.457C829.295 131.543 836.545 133.587 845.865 133.587C850.008 133.587 854.151 132.565 858.293 131.543C862.436 130.522 865.543 128.478 868.649 125.413C871.756 122.348 872.792 119.283 872.792 116.217C872.792 110.087 869.685 104.978 864.507 100.891C859.329 96.8044 851.044 94.7609 840.687 92.7174C828.26 89.6522 817.903 85.5652 809.618 79.4348C802.369 73.3044 798.226 64.1087 798.226 51.8478C798.226 43.6739 800.297 37.5435 804.44 31.413C808.582 25.2826 814.796 21.1956 822.046 18.1304C830.331 15.0652 837.58 13.0217 845.865 13.0217C857.257 13.0217 866.578 15.0652 873.828 19.1522C881.077 23.2391 888.327 29.3696 892.469 36.5218L877.97 50.8261C874.863 44.6957 869.685 40.6087 864.507 36.5218C859.329 33.4565 853.115 31.413 845.865 31.413C838.616 31.413 832.402 33.4565 827.224 36.5218C822.046 39.587 819.975 44.6956 819.975 49.8043C819.975 55.9348 822.046 61.0435 827.224 64.1087C832.402 67.1739 839.652 69.2174 847.937 71.2609C855.186 73.3043 863.471 75.3478 869.685 78.413C876.935 82.5 883.148 86.587 887.291 91.6957C891.434 96.8044 893.505 102.935 893.505 110.087C893.505 123.37 889.362 133.587 880.042 140.739C870.721 147.891 859.329 151.978 843.794 151.978C833.438 151.978 823.082 149.935 814.797 145.848C806.511 141.761 798.226 134.609 792.013 125.413L806.511 110.087Z" fill="white"/>
<path d="M1088.2 150.957V35.5H1049.89V15.0652H1149.31V35.5H1109.95V150.957H1088.2Z" fill="white"/>
<path d="M1431 82.5C1431 92.7174 1428.93 101.913 1425.82 110.087C1422.71 118.261 1417.54 126.435 1411.32 132.565C1405.11 138.696 1397.86 143.804 1389.57 147.891C1381.29 150.957 1371.97 153 1362.65 153C1353.33 153 1344.01 150.957 1335.72 147.891C1327.44 144.826 1320.19 139.717 1313.97 132.565C1307.76 126.435 1303.62 119.283 1300.51 110.087C1297.4 101.913 1295.33 92.7174 1295.33 82.5C1295.33 72.2826 1297.4 63.087 1300.51 54.913C1303.62 46.7391 1308.8 38.5652 1313.97 32.4348C1320.19 26.3043 1327.44 21.1957 1335.72 17.1087C1344.01 14.0435 1353.33 12 1362.65 12C1371.97 12 1381.29 14.0435 1389.57 17.1087C1397.86 20.1739 1405.11 25.2826 1411.32 32.4348C1417.54 39.5869 1421.68 45.7174 1425.82 54.913C1429.96 64.1087 1431 73.3044 1431 82.5ZM1410.29 82.5C1410.29 73.3044 1408.22 65.1304 1404.07 56.9565C1399.93 49.8043 1394.75 43.6739 1387.5 39.587C1381.29 35.5 1373 33.4565 1363.68 33.4565C1354.36 33.4565 1347.11 35.5 1339.86 39.587C1332.61 43.6739 1327.44 49.8043 1323.29 56.9565C1319.15 64.1087 1317.08 73.3044 1317.08 82.5C1317.08 91.6957 1319.15 99.8696 1323.29 108.043C1327.44 115.196 1332.61 121.326 1339.86 125.413C1347.11 129.5 1354.36 131.543 1363.68 131.543C1373 131.543 1380.25 129.5 1387.5 125.413C1394.75 121.326 1399.93 115.196 1404.07 108.043C1408.22 100.891 1410.29 91.6957 1410.29 82.5Z" fill="white"/>
</g>
</svg>
