<svg width="22" height="24" viewBox="0 0 22 24" fill="none" xmlns="http://www.w3.org/2000/svg">
<path d="M6.38524 9.28421C6.38524 6.66857 8.49302 4.54062 11.0836 4.54062C13.6743 4.54062 15.7821 6.66857 15.7821 9.28421C15.7821 9.67941 15.7155 10.1088 15.579 10.597C15.4505 11.0552 14.9784 11.3219 14.5245 11.1923C14.0705 11.0628 13.8064 10.5862 13.9347 10.1278C14.0282 9.79447 14.0734 9.51853 14.0734 9.28421C14.0734 7.61968 12.7323 6.26546 11.0836 6.26546C9.43503 6.26546 8.09375 7.61968 8.09375 9.28421C8.09375 10.9487 9.43503 12.303 11.0836 12.303C11.372 12.303 11.6488 12.2688 11.884 12.2039C12.339 12.0786 12.8087 12.3496 12.9328 12.8092C13.0569 13.2687 12.7887 13.7428 12.3333 13.8681C11.9483 13.9742 11.5278 14.028 11.0836 14.028C8.49302 14.028 6.38524 11.8998 6.38524 9.28421ZM20.7629 19.7624C19.8983 20.3854 18.8037 20.5831 17.84 20.6069C17.8626 21.1256 17.9172 21.5482 17.9841 22.0671C18.0245 22.3791 17.893 22.6887 17.6416 22.8745C17.4926 22.9847 17.3154 23.0409 17.137 23.0409C17.0141 23.0409 16.8908 23.0142 16.7755 22.9599C14.8903 22.0706 11.8999 19.1703 11.0973 17.0531C11.0968 17.0518 11.0967 17.0506 11.0962 17.0492C11.0616 17.0395 11.0258 17.0349 10.99 17.0358C10.988 17.0415 10.9867 17.0474 10.9845 17.0531C10.182 19.1703 7.19161 22.0706 5.3064 22.9599C5.19128 23.0142 5.06781 23.0409 4.94485 23.0409C4.76649 23.0409 4.58946 22.9847 4.4403 22.8745C4.18869 22.6887 4.05739 22.3791 4.09776 22.0671C4.16467 21.5484 4.21923 21.1259 4.24192 20.6069C3.27821 20.5831 2.18369 20.3854 1.31893 19.7624C1.07566 19.5871 0.94085 19.2963 0.963374 18.9954C0.985732 18.6946 1.16242 18.4276 1.42888 18.2911C3.18811 17.3907 4.39525 16.2432 4.83623 15.0549C4.00066 14.7227 3.50512 14.0453 3.52364 13.2354V11.9426C3.52364 11.9037 3.52381 11.865 3.52414 11.8271C3.52481 11.727 3.52564 11.5958 3.51764 11.5267L2.76666 10.5625C2.18453 9.81199 2.18453 8.76553 2.76566 8.0164L3.51647 7.04626C3.52581 6.97803 3.52464 6.85118 3.52414 6.77066C3.52381 6.74 3.52364 6.71001 3.52364 6.68087V5.39049C3.50145 4.45168 4.11178 3.61545 5.01259 3.35367C5.03277 3.34778 5.05296 3.34272 5.07348 3.33834L6.36038 3.06527C6.42962 3.04034 6.48968 2.99418 6.53106 2.93354L7.26168 1.86114C7.78959 1.08624 8.77282 0.765663 9.6526 1.08135L10.8781 1.52119C10.9555 1.54899 11.0408 1.54899 11.1184 1.52119L12.3437 1.08135C13.2236 0.765663 14.207 1.08624 14.7348 1.86097L15.4654 2.93354C15.5108 3.00008 15.5788 3.04944 15.6571 3.07218L16.9034 3.43453C17.8715 3.71602 18.4728 4.4601 18.4728 5.37668L18.4726 6.70884C18.4723 6.80216 18.4718 6.96118 18.4816 7.05518L19.2295 8.01472C19.8119 8.76553 19.8119 9.81199 19.2308 10.5611C19.2288 10.5638 19.2268 10.5663 19.2248 10.5689L18.48 11.507C18.4765 11.535 18.4728 11.5853 18.4728 11.6728V12.9207C18.4942 13.8733 17.7787 14.8884 16.9034 15.143L15.6571 15.5053C15.579 15.5281 15.5108 15.5773 15.4654 15.644L14.7349 16.7164C14.4031 17.2034 13.8914 17.51 13.3386 17.5929C14.0465 18.605 15.1284 19.7085 16.1263 20.4989C16.1191 20.2584 16.1178 19.9966 16.1238 19.7024C16.1288 19.4651 16.2302 19.2404 16.4046 19.081C16.5788 18.9217 16.8105 18.842 17.0448 18.8605C17.404 18.889 17.8221 18.8989 18.2409 18.8583C17.9843 18.6777 17.7492 18.4938 17.5306 18.3037C17.1734 17.9928 17.1334 17.4482 17.4414 17.0873C17.7494 16.7265 18.2889 16.6861 18.6462 16.997C19.147 17.433 19.8034 17.8562 20.653 18.2909C20.9195 18.4274 21.096 18.6946 21.1185 18.9953C21.141 19.2963 21.0062 19.5871 20.7629 19.7624ZM4.11061 9.49748L4.8993 10.5101C5.23816 10.9471 5.23516 11.4411 5.23249 11.838C5.23232 11.8724 5.23216 11.9073 5.23216 11.9425V13.2467C5.23216 13.2558 5.23199 13.2647 5.23166 13.2736C5.22999 13.3274 5.3668 13.4274 5.56568 13.4852L6.8122 13.8477C7.26953 13.9806 7.66963 14.2714 7.93858 14.6663L8.66921 15.7388C8.7593 15.8711 8.92832 15.9253 9.08032 15.8707L10.3058 15.4307C10.7523 15.2705 11.2442 15.2705 11.6905 15.4307L12.916 15.8707C13.068 15.9253 13.237 15.8711 13.3271 15.7388L14.0577 14.6663C14.3268 14.2714 14.7268 13.9806 15.1842 13.8477L16.4306 13.4852C16.5594 13.4478 16.7705 13.1424 16.7646 12.9588C16.7645 12.9498 16.7643 12.9409 16.7643 12.9318V11.6726C16.7643 11.3348 16.7965 10.9403 17.0349 10.5749C17.0494 10.5525 17.0651 10.5308 17.0816 10.5099L17.8878 9.49478C17.9811 9.37198 17.9803 9.20183 17.8857 9.07987L17.1187 8.09591C16.761 7.69044 16.7628 7.1224 16.7641 6.70311L16.7643 6.63573V5.37651C16.7643 5.22169 16.5828 5.13629 16.4306 5.09215L15.1842 4.72963C14.7268 4.59672 14.3267 4.30596 14.0577 3.9111L13.3271 2.83853C13.237 2.70646 13.0681 2.65205 12.916 2.70663L11.6905 3.14647C11.244 3.30684 10.7523 3.30684 10.3058 3.14647L9.08032 2.70663C8.92832 2.65205 8.7593 2.70629 8.66921 2.83853L7.93875 3.9111C7.66963 4.30596 7.26953 4.59672 6.8122 4.72963C6.79201 4.73553 6.77182 4.74058 6.7513 4.74496L5.46424 5.01803C5.32175 5.06907 5.22698 5.20333 5.23166 5.35174C5.23199 5.36084 5.23216 5.36977 5.23216 5.3787V6.68087C5.23216 6.70547 5.23232 6.7309 5.23249 6.75685C5.23516 7.10168 5.23933 7.62272 4.9003 8.05986L4.11128 9.0792C4.01534 9.20285 4.01534 9.3745 4.11061 9.49748ZM8.73561 17.604C8.15315 17.5393 7.60889 17.2261 7.26168 16.7164L6.53106 15.644C6.51304 15.6175 6.49152 15.5941 6.46716 15.5737C6.46599 15.5774 6.46516 15.5811 6.46399 15.5848C5.97146 16.9802 4.91498 18.0585 3.80862 18.8549C4.23825 18.8994 4.66855 18.8898 5.03728 18.8605C5.27137 18.842 5.50312 18.9217 5.6773 19.081C5.85166 19.2404 5.9531 19.4651 5.95811 19.7024C5.96411 19.9967 5.96278 20.2584 5.95577 20.4989C6.95001 19.7114 8.02751 18.6129 8.73561 17.604Z" fill="#1C314E"/>
</svg>
