<svg width="18" height="18" viewBox="0 0 18 18" fill="none" xmlns="http://www.w3.org/2000/svg">
<path d="M17.25 0.0625H0.75C0.3705 0.0625 0.0625 0.3705 0.0625 0.75C0.0625 1.1295 0.3705 1.4375 0.75 1.4375H15.59L0.263937 16.7639C-0.00453127 17.0324 -0.00453127 17.4676 0.263937 17.7361C0.398344 17.8705 0.574 17.9375 0.75 17.9375C0.926 17.9375 1.102 17.8705 1.23606 17.7361L16.5625 2.40963V17.25C16.5625 17.6295 16.8705 17.9375 17.25 17.9375C17.6295 17.9375 17.9375 17.6295 17.9375 17.25V0.75C17.9375 0.3705 17.6295 0.0625 17.25 0.0625Z" fill="#F4A17C"/>
</svg>
