<svg width="22" height="24" fill="none" xmlns="http://www.w3.org/2000/svg"><path d="M6.385 9.284c0-2.615 2.108-4.743 4.699-4.743 2.59 0 4.698 2.128 4.698 4.743 0 .395-.066.825-.203 1.313a.853.853 0 01-1.055.595.864.864 0 01-.59-1.064 3.18 3.18 0 00.14-.844c0-1.664-1.342-3.019-2.99-3.019-1.649 0-2.99 1.355-2.99 3.02 0 1.664 1.341 3.018 2.99 3.018.288 0 .565-.034.8-.1a.853.853 0 011.049.606.863.863 0 01-.6 1.06 4.71 4.71 0 01-1.25.159c-2.59 0-4.698-2.128-4.698-4.744zm14.378 10.478c-.865.623-1.96.821-2.923.845.023.519.077.941.144 1.46a.866.866 0 01-.342.808.848.848 0 01-.866.085c-1.886-.89-4.876-3.79-5.679-5.907v-.004a.36.36 0 00-.107-.013l-.005.017c-.803 2.117-3.793 5.018-5.679 5.907a.847.847 0 01-.866-.085.866.866 0 01-.342-.808c.067-.519.121-.941.144-1.46-.964-.024-2.058-.222-2.923-.845a.866.866 0 01.11-1.47c1.76-.901 2.966-2.049 3.407-3.237-.835-.332-1.33-1.01-1.312-1.82v-1.408c0-.1.002-.231-.006-.3l-.751-.964a2.076 2.076 0 01-.001-2.547l.75-.97c.01-.068.009-.195.008-.275V5.39a2.068 2.068 0 011.55-2.053l1.286-.273a.35.35 0 00.171-.131l.73-1.073a2.055 2.055 0 012.392-.78l1.225.44a.357.357 0 00.24 0l1.226-.44a2.055 2.055 0 012.39.78l.731 1.073a.35.35 0 00.192.138l1.246.363c.969.281 1.57 1.025 1.57 1.942v1.332c0 .093-.001.252.009.346l.748.96c.582.75.582 1.797 0 2.546l-.005.008-.745.938a1.403 1.403 0 00-.007.166v1.248c.021.952-.694 1.967-1.57 2.222l-1.246.362a.351.351 0 00-.192.139l-.73 1.072a2.056 2.056 0 01-1.396.877c.707 1.012 1.79 2.116 2.787 2.906a15.78 15.78 0 01-.002-.797.866.866 0 01.28-.621.85.85 0 01.64-.22c.36.028.778.038 1.197-.003a8.77 8.77 0 01-.71-.554.868.868 0 01-.09-1.217.849.849 0 011.205-.09c.501.436 1.157.86 2.007 1.294a.866.866 0 01.11 1.471zM4.11 9.497l.788 1.013c.34.437.336.931.333 1.328v1.436c-.002.053.135.153.334.211l1.246.363c.458.133.858.423 1.127.818l.73 1.073c.09.132.26.186.411.132l1.226-.44c.446-.16.938-.16 1.385 0l1.225.44c.152.054.321 0 .411-.132l.73-1.073c.27-.395.67-.685 1.127-.818l1.247-.363c.128-.037.34-.343.334-.526v-1.287c0-.337.032-.732.27-1.097a.855.855 0 01.047-.065l.806-1.015a.34.34 0 00-.002-.415l-.767-.984c-.358-.406-.356-.974-.355-1.393V5.376c0-.154-.181-.24-.333-.284l-1.247-.362a2.064 2.064 0 01-1.126-.819l-.73-1.072a.353.353 0 00-.412-.132l-1.226.44c-.446.16-.938.16-1.384 0l-1.226-.44a.353.353 0 00-.41.132L7.938 3.91a2.064 2.064 0 01-1.188.834l-1.287.273a.346.346 0 00-.232.36v1.379c.003.345.007.866-.332 1.303l-.789 1.02a.34.34 0 000 .417zm4.625 8.107a2.057 2.057 0 01-1.474-.888l-.73-1.072a.344.344 0 00-.065-.07l-.003.01c-.493 1.396-1.549 2.474-2.655 3.27.43.045.86.036 1.228.006a.85.85 0 01.64.221c.175.16.276.384.281.621.006.295.005.556-.002.797.994-.788 2.072-1.886 2.78-2.895z" fill="#1C314E"/></svg>